<?xml version="1.0" encoding="utf-8"?>
<!-- Generator: Adobe Illustrator 25.2.1, SVG Export Plug-In . SVG Version: 6.00 Build 0)  -->
<svg version="1.1" id="Layer_1" xmlns="http://www.w3.org/2000/svg" xmlns:xlink="http://www.w3.org/1999/xlink" x="0px" y="0px"
	 viewBox="0 0 64 64" style="enable-background:new 0 0 64 64;" xml:space="preserve">
<style type="text/css">
	.st0{fill:#F13924;}
	.st1{fill:#F7931E;}
	.st2{fill:#F15A24;}
	.st3{fill:#FBC83B;}
</style>
<path class="st0" d="M25.1,49.9L25.1,49.9L12.5,12.3l0,0C11.7,9.8,9.4,8,6.6,8c-3.5,0-6.3,2.8-6.3,6.3c0,0.8,0.2,1.6,0.5,2.4
	l12.4,37.1l0,0c0.7,2.7,3.1,4.8,6.1,4.8c3.5,0,6.3-2.8,6.3-6.3C25.6,51.4,25.4,50.6,25.1,49.9z"/>
<path class="st1" d="M26.4,29.5C26.4,29.5,26.4,29.5,26.4,29.5c-0.4-0.9-0.7-1.8-0.7-2.8c0-3.5,2.8-6.3,6.3-6.3
	c2.6,0,4.9,1.6,5.8,3.9c4.2,8.5,8.3,16.9,12.5,25.4c0,0,0,0,0,0c0.4,0.8,0.6,1.7,0.6,2.6c0,3.5-2.8,6.3-6.3,6.3
	c-2.3,0-4.3-1.2-5.4-3c0,0,0,0,0,0c0,0,0,0,0,0c-0.2-0.3-0.3-0.6-0.4-0.9C34.6,46.2,30.5,37.8,26.4,29.5z"/>
<path class="st2" d="M37.6,29.5C37.6,29.5,37.6,29.5,37.6,29.5c0.4-0.9,0.7-1.8,0.7-2.8c0-3.5-2.8-6.3-6.3-6.3
	c-2.6,0-4.9,1.6-5.8,3.9c-4.2,8.5-8.3,16.9-12.5,25.4c0,0,0,0,0,0c-0.4,0.8-0.6,1.7-0.6,2.6c0,3.5,2.8,6.3,6.3,6.3
	c2.3,0,4.3-1.2,5.4-3c0,0,0,0,0,0c0,0,0,0,0,0c0.2-0.3,0.3-0.6,0.4-0.9C29.3,46.2,33.5,37.8,37.6,29.5z"/>
<g>
	<path class="st3" d="M38.9,49.9L38.9,49.9l12.5-37.5l0,0C52.3,9.8,54.6,8,57.4,8c3.5,0,6.3,2.8,6.3,6.3c0,0.8-0.2,1.6-0.5,2.4
		L50.8,53.8l0,0c-0.7,2.7-3.1,4.8-6.1,4.8c-3.5,0-6.3-2.8-6.3-6.3C38.4,51.4,38.6,50.6,38.9,49.9z"/>
</g>
</svg>
